<svg xmlns="http://www.w3.org/2000/svg" viewBox="0 0 182.78 192"><defs><style>.cls-1{fill:#fff;}</style></defs><title>office_ikonka_2</title><g id="Layer_2" data-name="Layer 2"><g id="Layer_1-2" data-name="Layer 1"><path class="cls-1" d="M80.65,162A23.94,23.94,0,0,1,72,160.62a99.42,99.42,0,0,1-9.79-4.74c-8.32-4.42-16.92-9-30.19-7.81-9,.79-17-4.31-21.33-13.68s-4.73-23.62,4.65-32.92l2.82,2.84c-8,7.94-7.6,20.29-3.83,28.39,3.61,7.77,10.11,12,17.35,11.38,14.46-1.28,23.59,3.57,32.42,8.26a94.93,94.93,0,0,0,9.39,4.56c11,4.37,39.45-5,45.78-12,7.07-7.76,27.73-13.25,41.51-13.16,3.79.19,7.09-1.48,10-4.56,5.22-5.44,8.41-15.15,7.93-24.17,0-.83-.07-1.81-.09-2.9-.16-6.82-.43-18.23-6.94-22.42-8.29-5.34-11.13-4.6-14.41-3.75l-1-3.87c4.58-1.19,8.52-1.59,17.59,4.25,8.29,5.34,8.59,18.08,8.78,25.69,0,1,0,2,.09,2.78.54,10.06-3.1,21-9,27.16a17.91,17.91,0,0,1-13,5.79c-12.55-.26-32.22,5-38.49,11.86C116.28,154.1,95.15,162,80.65,162Z"/><path class="cls-1" d="M84.3,134.32a21.57,21.57,0,0,1-3.88-.36C67.16,131.53,60.68,125.3,55,119.8a47.18,47.18,0,0,0-7.24-6.11,82.37,82.37,0,0,0-8.55-4.41c-7.73-3.63-16.49-7.75-20.08-15.7C14.71,83.92.15,77.91,0,77.85l1.51-3.71c.66.27,16.19,6.69,21.22,17.79,3,6.6,10.69,10.22,18.14,13.72a85.78,85.78,0,0,1,9,4.64,50.08,50.08,0,0,1,7.88,6.61C63,122,69.07,127.82,81.14,130c2.52.46,11,1.35,13.75-6.69.86-2.46-1.53-5.64-7.29-9.71a38.65,38.65,0,0,0-3.78-2.23c-3.7-2-8.3-4.5-12.63-10.2a9.51,9.51,0,0,1-1.8-7.68,4.82,4.82,0,0,1,2.54-3.35c2.19-1,11.25-3.79,12.27-4.1a2,2,0,0,1,.58-.09h40a2,2,0,0,1,1.43.61l18.32,18.81c4.7,4.55,9.49,4.92,12.68,4.41a10.46,10.46,0,0,0,5.39-2.3L147.2,77.3,112,49.93,36.57,42a2,2,0,0,1-1-.39l-32-24L6,14.4,37.54,38.07,113,46a2,2,0,0,1,1,.41l36,28a2,2,0,0,1,.55.67l15.86,31.19c.61.73.76,2.51-1.28,4.34-3.42,3.06-14.06,6.71-23.44-2.38L123.94,90H85.08c-2.91.89-9.87,3.07-11.45,3.81a1.07,1.07,0,0,0-.36.68,5.61,5.61,0,0,0,1.1,4.3c3.81,5,7.82,7.18,11.36,9.1a41.51,41.51,0,0,1,4.18,2.47c4.73,3.34,10.79,8.46,8.76,14.29C96.18,131.82,90.14,134.32,84.3,134.32ZM162.83,108a1.35,1.35,0,0,0,.23.45Z"/><rect class="cls-1" x="139.12" y="34" width="11.31" height="4" transform="translate(16.95 112.92) rotate(-45)"/><rect class="cls-1" x="159.12" y="14" width="11.31" height="4" transform="translate(36.95 121.2) rotate(-45)"/><rect class="cls-1" x="162.78" y="30.34" width="4" height="11.31" transform="translate(22.81 127.06) rotate(-45)"/><rect class="cls-1" x="142.78" y="10.34" width="4" height="11.31" transform="translate(31.09 107.06) rotate(-45)"/><rect class="cls-1" x="142.78" y="152" width="4" height="12"/><rect class="cls-1" x="142.78" y="180" width="4" height="12"/><rect class="cls-1" x="124.78" y="170" width="12" height="4"/><rect class="cls-1" x="152.78" y="170" width="12" height="4"/><rect class="cls-1" x="86.78" width="4" height="8"/><rect class="cls-1" x="86.78" y="16" width="4" height="8"/><rect class="cls-1" x="76.78" y="10" width="8" height="4"/><rect class="cls-1" x="92.78" y="10" width="8" height="4"/></g></g></svg>