<svg xmlns="http://www.w3.org/2000/svg" viewBox="0 0 180 184"><defs><style>.cls-1{fill:#fff;}</style></defs><title>office_ikonka_3</title><g id="Layer_2" data-name="Layer 2"><g id="Layer_1-2" data-name="Layer 1"><path class="cls-1" d="M90,180a90,90,0,0,1-45-12l2-3.46A86,86,0,0,0,90,176Z"/><path class="cls-1" d="M12.27,135.4A90,90,0,0,1,126.82,7.85l-1.64,3.65A86,86,0,0,0,15.72,133.38Z"/><path class="cls-1" d="M31.51,90h-4A61.59,61.59,0,0,1,89,28.48v4A57.59,57.59,0,0,0,31.51,90Z"/><path class="cls-1" d="M166,184H114a13.86,13.86,0,0,1-14-14V126c0-5.88,4.44-10.69,8-14.56,1.78-1.93,4-4.34,4-5.44V98c0-1.33-3.51-6-5.6-8.8-4-5.29-6.4-8.66-6.4-11.2V66c0-9,16.41-22,22-22h36c5.59,0,22,13,22,22V78c0,2.54-2.43,5.91-6.4,11.2C171.51,92,168,96.67,168,98v8c0,1.1,2.22,3.51,4,5.44,3.56,3.87,8,8.68,8,14.56v44A13.86,13.86,0,0,1,166,184ZM122,48c-3.14,0-18,11.35-18,18V78c0,1.33,3.51,6,5.6,8.8,4,5.29,6.4,8.66,6.4,11.2v8c0,2.66-2.35,5.21-5.06,8.15-3.25,3.53-6.94,7.53-6.94,11.85v44c0,3.87,2.71,10,10,10h52c7.29,0,10-6.13,10-10V126c0-4.31-3.69-8.32-6.94-11.85-2.71-2.95-5.06-5.49-5.06-8.15V98c0-2.54,2.43-5.91,6.4-11.2C172.49,84,176,79.33,176,78V66c0-6.65-14.86-18-18-18Z"/><path class="cls-1" d="M156,38h-4V30a6,6,0,0,0-6-6H134a6,6,0,0,0-6,6v8h-4V30a10,10,0,0,1,10-10h12a10,10,0,0,1,10,10Z"/><path class="cls-1" d="M30,172a2,2,0,0,1-1.79-1.11l-6.37-12.74L9.11,151.79a2,2,0,0,1,0-3.58l12.74-6.37,6.37-12.74A2,2,0,0,1,30,128h0a2,2,0,0,1,1.79,1.11l6.37,12.74,12.74,6.37a2,2,0,0,1,0,3.58l-12.74,6.37-6.37,12.74A2,2,0,0,1,30,172ZM14.47,150l9.76,4.88a2,2,0,0,1,.89.89L30,165.53l4.88-9.76a2,2,0,0,1,.89-.89L45.53,150l-9.76-4.88a2,2,0,0,1-.89-.89L30,134.47l-4.88,9.76a2,2,0,0,1-.89.89Z"/><path class="cls-1" d="M66,128a2,2,0,0,1-1.79-1.11l-7.7-15.4-15.4-7.7a2,2,0,0,1,0-3.58l15.4-7.7,7.7-15.4a2.08,2.08,0,0,1,3.58,0l7.7,15.4,15.4,7.7a2,2,0,0,1,0,3.58l-15.4,7.7-7.7,15.4A2,2,0,0,1,66,128ZM46.47,102l12.42,6.21a2,2,0,0,1,.89.89L66,121.53l6.21-12.42a2,2,0,0,1,.89-.89L85.53,102,73.11,95.79a2,2,0,0,1-.89-.89L66,82.47,59.79,94.89a2,2,0,0,1-.89.89Z"/></g></g></svg>