<svg xmlns="http://www.w3.org/2000/svg" viewBox="0 0 252 42.73"><defs><style>.cls-1{fill:#121133;}.cls-2{fill:#3fc3df;}</style></defs><title>pranie</title><g id="Layer_2" data-name="Layer 2"><g id="Layer_1-2" data-name="Layer 1"><path class="cls-1" d="M78.23,16.27l-1.87,3.56A12.32,12.32,0,0,0,71,18.12c-1,0-1.68.38-1.68,1.18,0,2.35,9,1.21,9,7.18,0,3.53-3.08,5.47-7.21,5.47a12.66,12.66,0,0,1-7.69-2.42L65.1,26a11,11,0,0,0,6.07,2.13c1.08,0,1.87-.38,1.87-1.17,0-2.51-8.87-1.21-8.83-7.21,0-3.53,3-5.43,7-5.43A14,14,0,0,1,78.23,16.27Z"/><path class="cls-1" d="M100.61,20.91v10.8h-5.5V22.44c0-2-1.14-3.24-3-3.24-2.16,0-3.5,1.72-3.5,4.07v8.45H83.1V13.64a5.5,5.5,0,0,1,5.5-5.5h0v9.28a6.37,6.37,0,0,1,5.75-3.08C98.13,14.34,100.61,16.91,100.61,20.91Z"/><path class="cls-1" d="M111.74,9.67a2.89,2.89,0,1,1-5.78,0,2.89,2.89,0,1,1,5.78,0Zm-5.66,22.05V20.06a5.47,5.47,0,0,1,5.47-5.47h0V26.25a5.47,5.47,0,0,1-5.47,5.47Z"/><path class="cls-1" d="M135,20.91v10.8h-5.46V22.44a2.92,2.92,0,0,0-3-3.24c-2,0-3.27,1.43-3.5,3.46v9.06h-5.5V20.09a5.5,5.5,0,0,1,5.5-5.5h0v2.8a6.35,6.35,0,0,1,5.72-3.05C132.56,14.34,135,16.91,135,20.91Z"/><path class="cls-1" d="M156.69,24.63h-12a4,4,0,0,0,4,3.18,5.78,5.78,0,0,0,4.1-1.75l2.89,2.83a9.84,9.84,0,0,1-7.47,3c-5.59,0-9.09-3.5-9.09-8.71s3.62-8.8,8.93-8.8C154.08,14.4,157.07,18.37,156.69,24.63Zm-5.28-3a3.2,3.2,0,0,0-3.3-3.46c-1.91,0-3.21,1.4-3.56,3.46Z"/><path class="cls-1" d="M180.09,23.23c0,5.21-3.11,8.68-7.91,8.68a6.34,6.34,0,0,1-5.24-2.48v3a5.5,5.5,0,0,1-5.5,5.5h0V20.09a5.5,5.5,0,0,1,5.5-5.5h0v2.26A6.24,6.24,0,0,1,172,14.4C176.88,14.4,180.09,17.93,180.09,23.23Zm-5.53-.16c0-2.61-1.56-4.45-3.85-4.45s-3.78,1.84-3.78,4.45,1.56,4.48,3.78,4.48S174.56,25.71,174.56,23.08Z"/><path class="cls-1" d="M201.93,23.14c0,5.28-3.75,8.77-9.34,8.77s-9.37-3.5-9.37-8.77,3.75-8.74,9.37-8.74S201.93,17.86,201.93,23.14Zm-13.19.06c0,2.67,1.56,4.45,3.85,4.45s3.81-1.78,3.81-4.45-1.56-4.45-3.81-4.45S188.74,20.56,188.74,23.2Z"/><path class="cls-1" d="M206.48,31.72V20.06a5.47,5.47,0,0,1,5.47-5.47h0V26.25a5.47,5.47,0,0,1-5.47,5.47Z"/><path class="cls-1" d="M235.43,20.91v10.8H230V22.44a2.92,2.92,0,0,0-3-3.24c-2,0-3.27,1.43-3.5,3.46v9.06H218V20.09a5.5,5.5,0,0,1,5.5-5.5h0v2.8a6.35,6.35,0,0,1,5.72-3.05C233,14.34,235.43,16.91,235.43,20.91Z"/><path class="cls-1" d="M252,30.8A9.31,9.31,0,0,1,247.42,32c-3.3,0-5.69-1.87-5.69-5.43V19h-2.38V15.39h2.38a4.77,4.77,0,0,1,4.77-4.77h.7v4.74h4.48V19H247.2v6.71c0,1.34.57,1.91,1.59,1.88a6,6,0,0,0,2.13-.57Z"/><path class="cls-2" d="M211.73,8.07a.06.06,0,0,1,0,.11,11.19,11.19,0,0,0-5.1,2.95,11,11,0,0,0-2.93,5.1.06.06,0,0,1-.11,0,11.38,11.38,0,0,0-8-8,.06.06,0,0,1,0-.11,11.32,11.32,0,0,0,5.1-2.93A11.19,11.19,0,0,0,203.59,0a.06.06,0,0,1,.11,0A11.23,11.23,0,0,0,211.73,8.07Z"/><path class="cls-2" d="M30.9,2.2H9.65A9.66,9.66,0,0,0,0,11.84V33.09a9.66,9.66,0,0,0,9.65,9.64H30.9a9.66,9.66,0,0,0,9.64-9.64V11.84A9.66,9.66,0,0,0,30.9,2.2Zm5.26,30.89a5.26,5.26,0,0,1-5.26,5.26H9.65a5.26,5.26,0,0,1-5.26-5.26V11.84A5.26,5.26,0,0,1,9.65,6.59H30.9a5.26,5.26,0,0,1,5.26,5.26Z"/><circle class="cls-2" cx="24.74" cy="30.51" r="2.22"/><circle class="cls-2" cx="14.02" cy="22.46" r="5.63"/><circle class="cls-2" cx="26.11" cy="15.07" r="3.98"/></g></g></svg>