<svg xmlns="http://www.w3.org/2000/svg" viewBox="0 0 252 43.19"><defs><style>.cls-1{fill:#121133;}.cls-2{fill:#e78924;}</style></defs><title>biura i mieszkania</title><g id="Layer_2" data-name="Layer 2"><g id="Layer_1-2" data-name="Layer 1"><path class="cls-1" d="M78.66,16.23l-1.87,3.55a12.29,12.29,0,0,0-5.39-1.71c-1,0-1.68.38-1.68,1.17,0,2.34,9,1.2,9,7.16,0,3.52-3.07,5.45-7.2,5.45a12.63,12.63,0,0,1-7.67-2.41L65.56,26a11,11,0,0,0,6.06,2.12c1.08,0,1.87-.38,1.87-1.17,0-2.51-8.84-1.2-8.81-7.2,0-3.52,3-5.42,6.94-5.42A14,14,0,0,1,78.66,16.23Z"/><path class="cls-1" d="M101,20.86V31.64H95.5V22.38c0-2-1.14-3.23-3-3.23-2.16,0-3.49,1.71-3.49,4.06v8.43H83.51v-18A5.48,5.48,0,0,1,89,8.12h0v9.26a6.36,6.36,0,0,1,5.74-3.07C98.51,14.3,101,16.87,101,20.86Z"/><path class="cls-1" d="M112.09,9.64a2.89,2.89,0,1,1-5.77,0,2.89,2.89,0,1,1,5.77,0Zm-5.64,22V20a5.45,5.45,0,0,1,5.45-5.45h0V26.19a5.45,5.45,0,0,1-5.45,5.45Z"/><path class="cls-1" d="M135.33,20.86V31.64h-5.45V22.38a2.91,2.91,0,0,0-3-3.23c-2,0-3.26,1.43-3.49,3.46v9h-5.48V20a5.48,5.48,0,0,1,5.48-5.48h0v2.79a6.34,6.34,0,0,1,5.71-3C132.85,14.3,135.33,16.87,135.33,20.86Z"/><path class="cls-1" d="M156.92,24.57h-12a4,4,0,0,0,4,3.17A5.77,5.77,0,0,0,153,26l2.88,2.82a9.82,9.82,0,0,1-7.45,3c-5.58,0-9.07-3.49-9.07-8.69s3.61-8.78,8.91-8.78C154.32,14.36,157.3,18.33,156.92,24.57Zm-5.26-2.95a3.19,3.19,0,0,0-3.3-3.46c-1.9,0-3.2,1.39-3.55,3.46Z"/><path class="cls-1" d="M180.26,23.18c0,5.2-3.11,8.65-7.89,8.65a6.32,6.32,0,0,1-5.23-2.47v2.95a5.48,5.48,0,0,1-5.48,5.48h0V20a5.48,5.48,0,0,1,5.48-5.48h0v2.25a6.22,6.22,0,0,1,5.1-2.44C177.06,14.36,180.26,17.88,180.26,23.18ZM174.75,23c0-2.6-1.55-4.44-3.84-4.44s-3.77,1.84-3.77,4.44,1.55,4.47,3.77,4.47S174.75,25.65,174.75,23Z"/><path class="cls-1" d="M202.05,23.08c0,5.26-3.74,8.75-9.32,8.75s-9.35-3.49-9.35-8.75,3.74-8.72,9.35-8.72S202.05,17.82,202.05,23.08Zm-13.16.06c0,2.66,1.55,4.44,3.84,4.44s3.8-1.78,3.8-4.44-1.55-4.44-3.8-4.44S188.89,20.51,188.89,23.14Z"/><path class="cls-1" d="M206.59,31.64V20A5.45,5.45,0,0,1,212,14.55h0V26.19a5.45,5.45,0,0,1-5.45,5.45Z"/><path class="cls-1" d="M235.48,20.86V31.64H230V22.38a2.91,2.91,0,0,0-3-3.23c-2,0-3.26,1.43-3.49,3.46v9H218V20a5.48,5.48,0,0,1,5.48-5.48h0v2.79a6.34,6.34,0,0,1,5.71-3C233,14.3,235.48,16.87,235.48,20.86Z"/><path class="cls-1" d="M252,30.72a9.28,9.28,0,0,1-4.56,1.17c-3.3,0-5.67-1.87-5.67-5.42V18.93h-2.38V15.35h2.38a4.76,4.76,0,0,1,4.76-4.76h.7v4.72h4.47v3.61h-4.47v6.69c0,1.33.57,1.9,1.59,1.87a6,6,0,0,0,2.12-.57Z"/><path class="cls-2" d="M211.83,8.05a.06.06,0,0,1,0,.11,11.16,11.16,0,0,0-5.09,2.94,11,11,0,0,0-2.92,5.09.06.06,0,0,1-.11,0,11.36,11.36,0,0,0-8-8,.06.06,0,0,1,0-.11,11.3,11.3,0,0,0,5.09-2.92A11.16,11.16,0,0,0,203.71,0a.06.06,0,0,1,.11,0A11.2,11.2,0,0,0,211.83,8.05Z"/><path class="cls-2" d="M30.82,43.19H9.62A9.63,9.63,0,0,1,0,33.57V12.37A9.63,9.63,0,0,1,9.62,2.75h21.2a9.63,9.63,0,0,1,9.62,9.62v21.2A9.63,9.63,0,0,1,30.82,43.19ZM9.62,7.13a5.25,5.25,0,0,0-5.24,5.24v21.2a5.25,5.25,0,0,0,5.24,5.24h21.2a5.25,5.25,0,0,0,5.24-5.24V12.37a5.25,5.25,0,0,0-5.24-5.24Z"/><path class="cls-2" d="M25.76,20.85H14.68a4.91,4.91,0,0,0-4.91,4.91h20.9A4.91,4.91,0,0,0,25.76,20.85Z"/><rect class="cls-2" x="9.77" y="27.86" width="20.9" height="3.2"/><rect class="cls-2" x="17.97" y="14.88" width="4.51" height="8.43"/></g></g></svg>