<svg xmlns="http://www.w3.org/2000/svg" viewBox="0 0 252 50.61"><defs><style>.cls-1{fill:#121133;}</style></defs><title>glowne</title><g id="Layer_2" data-name="Layer 2"><g id="Layer_1-2" data-name="Layer 1"><path class="cls-1" d="M19.87,21.74l-2.5,4.76a16.46,16.46,0,0,0-7.22-2.29c-1.32,0-2.25.51-2.25,1.57,0,3.14,12.06,1.61,12,9.59,0,4.71-4.12,7.3-9.64,7.3A16.92,16.92,0,0,1,0,39.44l2.33-4.67a14.68,14.68,0,0,0,8.11,2.84c1.44,0,2.5-.51,2.5-1.57,0-3.36-11.84-1.61-11.8-9.64,0-4.71,4-7.26,9.3-7.26A18.72,18.72,0,0,1,19.87,21.74Z"/><path class="cls-1" d="M49.76,27.94V42.37H42.42V30c0-2.67-1.53-4.33-4-4.33-2.89,0-4.67,2.29-4.67,5.43V42.37H26.37V18.22a7.34,7.34,0,0,1,7.34-7.34h0v12.4a8.51,8.51,0,0,1,7.69-4.12C46.45,19.15,49.76,22.59,49.76,27.94Z"/><path class="cls-1" d="M64.63,12.91a3.86,3.86,0,1,1-7.73,0,3.86,3.86,0,1,1,7.73,0ZM57.08,42.37V26.79a7.3,7.3,0,0,1,7.3-7.3h0V35.07a7.3,7.3,0,0,1-7.3,7.3Z"/><path class="cls-1" d="M95.75,27.94V42.37h-7.3V30c0-2.67-1.57-4.33-4-4.33-2.67,0-4.37,1.91-4.67,4.63v12.1H72.41V26.83a7.34,7.34,0,0,1,7.34-7.34h0v3.74a8.49,8.49,0,0,1,7.64-4.08C92.44,19.15,95.75,22.59,95.75,27.94Z"/><path class="cls-1" d="M124.68,32.9H108.59A5.29,5.29,0,0,0,114,37.15a7.72,7.72,0,0,0,5.48-2.34l3.86,3.78a13.15,13.15,0,0,1-10,4C105.87,42.63,101.2,38,101.2,31S106,19.24,113.13,19.24C121.2,19.24,125.19,24.54,124.68,32.9Zm-7-3.95a4.27,4.27,0,0,0-4.41-4.63c-2.55,0-4.29,1.87-4.75,4.63Z"/><path class="cls-1" d="M155.93,31c0,7-4.16,11.59-10.57,11.59a8.47,8.47,0,0,1-7-3.31v3.95A7.34,7.34,0,0,1,131,50.61h0V26.83a7.34,7.34,0,0,1,7.34-7.34h0v3a8.34,8.34,0,0,1,6.83-3.27C151.65,19.24,155.93,23.95,155.93,31Zm-7.39-.21c0-3.48-2.08-5.94-5.14-5.94s-5.05,2.46-5.05,5.94,2.08,6,5.05,6S148.55,34.35,148.55,30.83Z"/><path class="cls-1" d="M185.11,30.91c0,7-5,11.72-12.48,11.72S160.11,38,160.11,30.91s5-11.67,12.52-11.67S185.11,23.86,185.11,30.91ZM167.49,31c0,3.57,2.08,5.94,5.14,5.94s5.09-2.38,5.09-5.94-2.08-5.94-5.09-5.94S167.49,27.47,167.49,31Z"/><path class="cls-1" d="M191.19,42.37V26.79a7.3,7.3,0,0,1,7.3-7.3h0V35.07a7.3,7.3,0,0,1-7.3,7.3Z"/><path class="cls-1" d="M229.87,27.94V42.37h-7.3V30c0-2.67-1.57-4.33-4-4.33-2.67,0-4.37,1.91-4.67,4.63v12.1h-7.34V26.83a7.34,7.34,0,0,1,7.34-7.34h0v3.74a8.49,8.49,0,0,1,7.64-4.08C226.56,19.15,229.87,22.59,229.87,27.94Z"/><path class="cls-1" d="M252,41.14a12.43,12.43,0,0,1-6.11,1.57c-4.41,0-7.6-2.5-7.6-7.26V25.35H235.1v-4.8h3.18a6.37,6.37,0,0,1,6.37-6.37h.93v6.33h6v4.84h-6v9c0,1.78.76,2.55,2.12,2.51a8,8,0,0,0,2.84-.76Z"/><path class="cls-1" d="M198.2,10.79a.07.07,0,0,1,0,.15,14.94,14.94,0,0,0-6.81,3.94,14.69,14.69,0,0,0-3.91,6.81.07.07,0,0,1-.15,0,15.21,15.21,0,0,0-10.75-10.75.07.07,0,0,1,0-.15,15.13,15.13,0,0,0,6.82-3.91A14.94,14.94,0,0,0,187.33.06a.07.07,0,0,1,.15,0A15,15,0,0,0,198.2,10.79Z"/></g></g></svg>