<svg xmlns="http://www.w3.org/2000/svg" viewBox="0 0 145.09 188"><defs><style>.cls-1{fill:#fff;}</style></defs><title>office_ikonka_1</title><g id="Layer_2" data-name="Layer 2"><g id="Layer_1-2" data-name="Layer 1"><path class="cls-1" d="M6.82,59.5A20,20,0,1,1,34.07,30.35a18,18,0,0,1,20.07,2.86A21.86,21.86,0,0,1,95,36.28a17.78,17.78,0,0,1,11-3.82,18,18,0,0,1,15.88,26.48l-3.53-1.89a14,14,0,0,0-23-15.52,2,2,0,0,1-3.52-1.06,17.88,17.88,0,0,0-35-2.91,2,2,0,0,1-3.53.64,14,14,0,0,0-18.53-3.63,2,2,0,0,1-2.57-.41A16,16,0,1,0,9.46,56.5Z"/><path class="cls-1" d="M94,104A10,10,0,0,1,84,94V70A10,10,0,0,0,74,60H6a2,2,0,0,0-2,2V74a2,2,0,0,0,2,2H50a2,2,0,0,1,0,4H6a6,6,0,0,1-6-6V62a6,6,0,0,1,6-6H74A14,14,0,0,1,88,70V94a6,6,0,0,0,12,0V56h30a6,6,0,0,1,6,6V74a6,6,0,0,1-6,6H118a2,2,0,0,1,0-4h12a2,2,0,0,0,2-2V62a2,2,0,0,0-2-2H104V94A10,10,0,0,1,94,104Z"/><path class="cls-1" d="M38,22a2,2,0,0,1-2-2A20,20,0,0,1,72.62,8.87,2,2,0,1,1,69.3,11.1,16,16,0,0,0,40,20,2,2,0,0,1,38,22Z"/><path class="cls-1" d="M112.59,163.42A42.36,42.36,0,0,1,99,161.2c-20.66-7-41.13-35.78-50.67-60.59a2,2,0,1,1,3.73-1.43c9.2,23.94,28.72,51.63,48.22,58.23,11,3.72,23.4,2.21,31.64-3.85a21.9,21.9,0,0,0,9.12-19c-.21-8.88-2.11-17.74-6-27.91a2,2,0,0,1,3.74-1.42c4,10.6,6,19.88,6.22,29.23a26.1,26.1,0,0,1-10.75,22.28C128.42,161.14,120.62,163.42,112.59,163.42Z"/><path class="cls-1" d="M58,100H42a2,2,0,0,1,0-4H58a2,2,0,0,1,0,4Z"/><path class="cls-1" d="M106.86,188H29.14a14.05,14.05,0,0,1-14-13L8,78.15a2,2,0,0,1,4-.3l7.18,96.88a10,10,0,0,0,10,9.26h77.71a10,10,0,0,0,10-9.26l1-12.89a2,2,0,0,1,2.14-1.85,2,2,0,0,1,1.85,2.14l-1,12.88A14.05,14.05,0,0,1,106.86,188Z"/><path class="cls-1" d="M121,148h-.15a2,2,0,0,1-1.85-2.14l5-68A2,2,0,0,1,126.15,76,2,2,0,0,1,128,78.15l-5,68A2,2,0,0,1,121,148Z"/></g></g></svg>